<?xml version="1.0" encoding="UTF-8"?>
<svg width="800" height="600" viewBox="0 0 800 600" fill="none" xmlns="http://www.w3.org/2000/svg">
    <!-- Background Elements -->
    <path d="M400 550C565.685 550 700 415.685 700 250C700 84.3147 565.685 -50 400 -50C234.315 -50 100 84.3147 100 250C100 415.685 234.315 550 400 550Z" fill="url(#paint0_radial)"/>
    <circle cx="400" cy="250" r="200" fill="url(#paint1_linear)" fill-opacity="0.1"/>
    
    <!-- Code Window -->
    <rect x="250" y="150" width="300" height="200" rx="10" fill="#1E293B"/>
    <rect x="250" y="150" width="300" height="30" rx="10" fill="#334155"/>
    <circle cx="270" cy="165" r="5" fill="#EF4444"/>
    <circle cx="290" cy="165" r="5" fill="#FCD34D"/>
    <circle cx="310" cy="165" r="5" fill="#22C55E"/>
    
    <!-- Code Lines -->
    <rect x="270" y="200" width="200" height="10" rx="5" fill="#3B82F6" fill-opacity="0.6"/>
    <rect x="270" y="220" width="150" height="10" rx="5" fill="#8B5CF6" fill-opacity="0.6"/>
    <rect x="270" y="240" width="180" height="10" rx="5" fill="#EC4899" fill-opacity="0.6"/>
    <rect x="270" y="260" width="160" height="10" rx="5" fill="#10B981" fill-opacity="0.6"/>
    <rect x="270" y="280" width="190" height="10" rx="5" fill="#F59E0B" fill-opacity="0.6"/>
    
    <!-- Floating Elements -->
    <circle cx="150" cy="200" r="20" fill="#3B82F6" fill-opacity="0.2"/>
    <circle cx="650" cy="300" r="30" fill="#8B5CF6" fill-opacity="0.2"/>
    <circle cx="200" cy="400" r="25" fill="#EC4899" fill-opacity="0.2"/>
    <circle cx="600" cy="150" r="15" fill="#10B981" fill-opacity="0.2"/>
    
    <!-- Gradients -->
    <defs>
        <radialGradient id="paint0_radial" cx="0" cy="0" r="1" gradientUnits="userSpaceOnUse" gradientTransform="translate(400 250) rotate(90) scale(300)">
            <stop stop-color="#3B82F6" stop-opacity="0.1"/>
            <stop offset="1" stop-color="white" stop-opacity="0"/>
        </radialGradient>
        <linearGradient id="paint1_linear" x1="400" y1="50" x2="400" y2="450" gradientUnits="userSpaceOnUse">
            <stop stop-color="#3B82F6"/>
            <stop offset="1" stop-color="#1E40AF"/>
        </linearGradient>
    </defs>
</svg> 